<svg width="148" height="21" viewBox="0 0 148 21" fill="none" xmlns="http://www.w3.org/2000/svg">
<path d="M9.88 12.16H4.06L3.06 15H0.68L5.66 1.08H8.3L13.28 15H10.88L9.88 12.16ZM9.24 10.3L6.98 3.84L4.7 10.3H9.24ZM25.4253 3.98V15H23.1453V13.7C22.7853 14.1533 22.312 14.5133 21.7253 14.78C21.152 15.0333 20.5386 15.16 19.8853 15.16C19.0186 15.16 18.2386 14.98 17.5453 14.62C16.8653 14.26 16.3253 13.7267 15.9253 13.02C15.5386 12.3133 15.3453 11.46 15.3453 10.46V3.98H17.6053V10.12C17.6053 11.1067 17.852 11.8667 18.3453 12.4C18.8386 12.92 19.512 13.18 20.3653 13.18C21.2186 13.18 21.892 12.92 22.3853 12.4C22.892 11.8667 23.1453 11.1067 23.1453 10.12V3.98H25.4253ZM31.0936 5.84V11.94C31.0936 12.3533 31.1869 12.6533 31.3736 12.84C31.5736 13.0133 31.9069 13.1 32.3736 13.1H33.7736V15H31.9736C30.9469 15 30.1603 14.76 29.6136 14.28C29.0669 13.8 28.7936 13.02 28.7936 11.94V5.84H27.4936V3.98H28.7936V1.24H31.0936V3.98H33.7736V5.84H31.0936ZM40.655 15.18C39.615 15.18 38.675 14.9467 37.835 14.48C36.995 14 36.335 13.3333 35.855 12.48C35.375 11.6133 35.135 10.6133 35.135 9.48C35.135 8.36 35.3817 7.36667 35.875 6.5C36.3683 5.63333 37.0417 4.96667 37.895 4.5C38.7483 4.03333 39.7017 3.8 40.755 3.8C41.8083 3.8 42.7617 4.03333 43.615 4.5C44.4683 4.96667 45.1417 5.63333 45.635 6.5C46.1283 7.36667 46.375 8.36 46.375 9.48C46.375 10.6 46.1217 11.5933 45.615 12.46C45.1083 13.3267 44.415 14 43.535 14.48C42.6683 14.9467 41.7083 15.18 40.655 15.18ZM40.655 13.2C41.2417 13.2 41.7883 13.06 42.295 12.78C42.815 12.5 43.235 12.08 43.555 11.52C43.875 10.96 44.035 10.28 44.035 9.48C44.035 8.68 43.8817 8.00667 43.575 7.46C43.2683 6.9 42.8617 6.48 42.355 6.2C41.8483 5.92 41.3017 5.78 40.715 5.78C40.1283 5.78 39.5817 5.92 39.075 6.2C38.5817 6.48 38.1883 6.9 37.895 7.46C37.6017 8.00667 37.455 8.68 37.455 9.48C37.455 10.6667 37.755 11.5867 38.355 12.24C38.9683 12.88 39.735 13.2 40.655 13.2ZM56.1042 5.6C56.4909 5.09333 57.0176 4.66667 57.6842 4.32C58.3509 3.97333 59.1042 3.8 59.9442 3.8C60.9042 3.8 61.7776 4.04 62.5642 4.52C63.3642 4.98667 63.9909 5.64667 64.4442 6.5C64.8976 7.35333 65.1242 8.33333 65.1242 9.44C65.1242 10.5467 64.8976 11.54 64.4442 12.42C63.9909 13.2867 63.3642 13.9667 62.5642 14.46C61.7776 14.94 60.9042 15.18 59.9442 15.18C59.1042 15.18 58.3576 15.0133 57.7042 14.68C57.0509 14.3333 56.5176 13.9067 56.1042 13.4V20.24H53.8242V3.98H56.1042V5.6ZM62.8042 9.44C62.8042 8.68 62.6442 8.02667 62.3242 7.48C62.0176 6.92 61.6042 6.5 61.0842 6.22C60.5776 5.92667 60.0309 5.78 59.4442 5.78C58.8709 5.78 58.3242 5.92667 57.8042 6.22C57.2976 6.51333 56.8842 6.94 56.5642 7.5C56.2576 8.06 56.1042 8.72 56.1042 9.48C56.1042 10.24 56.2576 10.9067 56.5642 11.48C56.8842 12.04 57.2976 12.4667 57.8042 12.76C58.3242 13.0533 58.8709 13.2 59.4442 13.2C60.0309 13.2 60.5776 13.0533 61.0842 12.76C61.6042 12.4533 62.0176 12.0133 62.3242 11.44C62.6442 10.8667 62.8042 10.2 62.8042 9.44ZM66.6189 9.44C66.6189 8.33333 66.8456 7.35333 67.2989 6.5C67.7656 5.64667 68.3922 4.98667 69.1789 4.52C69.9789 4.04 70.8589 3.8 71.8189 3.8C72.6856 3.8 73.4389 3.97333 74.0789 4.32C74.7322 4.65333 75.2522 5.07333 75.6389 5.58V3.98H77.9389V15H75.6389V13.36C75.2522 13.88 74.7256 14.3133 74.0589 14.66C73.3922 15.0067 72.6322 15.18 71.7789 15.18C70.8322 15.18 69.9656 14.94 69.1789 14.46C68.3922 13.9667 67.7656 13.2867 67.2989 12.42C66.8456 11.54 66.6189 10.5467 66.6189 9.44ZM75.6389 9.48C75.6389 8.72 75.4789 8.06 75.1589 7.5C74.8522 6.94 74.4456 6.51333 73.9389 6.22C73.4322 5.92667 72.8856 5.78 72.2989 5.78C71.7122 5.78 71.1656 5.92667 70.6589 6.22C70.1522 6.5 69.7389 6.92 69.4189 7.48C69.1122 8.02667 68.9589 8.68 68.9589 9.44C68.9589 10.2 69.1122 10.8667 69.4189 11.44C69.7389 12.0133 70.1522 12.4533 70.6589 12.76C71.1789 13.0533 71.7256 13.2 72.2989 13.2C72.8856 13.2 73.4322 13.0533 73.9389 12.76C74.4456 12.4667 74.8522 12.04 75.1589 11.48C75.4789 10.9067 75.6389 10.24 75.6389 9.48ZM83.2136 5.58C83.5469 5.02 83.9869 4.58667 84.5336 4.28C85.0936 3.96 85.7536 3.8 86.5136 3.8V6.16H85.9336C85.0403 6.16 84.3603 6.38667 83.8936 6.84C83.4403 7.29333 83.2136 8.08 83.2136 9.2V15H80.9336V3.98H83.2136V5.58ZM91.2694 5.84V11.94C91.2694 12.3533 91.3627 12.6533 91.5494 12.84C91.7494 13.0133 92.0827 13.1 92.5494 13.1H93.9494V15H92.1494C91.1227 15 90.336 14.76 89.7894 14.28C89.2427 13.8 88.9694 13.02 88.9694 11.94V5.84H87.6694V3.98H88.9694V1.24H91.2694V3.98H93.9494V5.84H91.2694ZM116.046 3.98L112.626 15H110.226L108.006 6.86L105.786 15H103.386L99.9461 3.98H102.266L104.566 12.84L106.906 3.98H109.286L111.526 12.8L113.806 3.98H116.046ZM116.99 9.44C116.99 8.33333 117.217 7.35333 117.67 6.5C118.137 5.64667 118.763 4.98667 119.55 4.52C120.35 4.04 121.23 3.8 122.19 3.8C123.057 3.8 123.81 3.97333 124.45 4.32C125.103 4.65333 125.623 5.07333 126.01 5.58V3.98H128.31V15H126.01V13.36C125.623 13.88 125.097 14.3133 124.43 14.66C123.763 15.0067 123.003 15.18 122.15 15.18C121.203 15.18 120.337 14.94 119.55 14.46C118.763 13.9667 118.137 13.2867 117.67 12.42C117.217 11.54 116.99 10.5467 116.99 9.44ZM126.01 9.48C126.01 8.72 125.85 8.06 125.53 7.5C125.223 6.94 124.817 6.51333 124.31 6.22C123.803 5.92667 123.257 5.78 122.67 5.78C122.083 5.78 121.537 5.92667 121.03 6.22C120.523 6.5 120.11 6.92 119.79 7.48C119.483 8.02667 119.33 8.68 119.33 9.44C119.33 10.2 119.483 10.8667 119.79 11.44C120.11 12.0133 120.523 12.4533 121.03 12.76C121.55 13.0533 122.097 13.2 122.67 13.2C123.257 13.2 123.803 13.0533 124.31 12.76C124.817 12.4667 125.223 12.04 125.53 11.48C125.85 10.9067 126.01 10.24 126.01 9.48ZM133.585 0.2V15H131.305V0.2H133.585ZM135.818 9.44C135.818 8.33333 136.045 7.35333 136.498 6.5C136.965 5.64667 137.591 4.98667 138.378 4.52C139.178 4.04 140.058 3.8 141.018 3.8C141.885 3.8 142.638 3.97333 143.278 4.32C143.931 4.65333 144.451 5.07333 144.838 5.58V3.98H147.138V15H144.838V13.36C144.451 13.88 143.925 14.3133 143.258 14.66C142.591 15.0067 141.831 15.18 140.978 15.18C140.031 15.18 139.165 14.94 138.378 14.46C137.591 13.9667 136.965 13.2867 136.498 12.42C136.045 11.54 135.818 10.5467 135.818 9.44ZM144.838 9.48C144.838 8.72 144.678 8.06 144.358 7.5C144.051 6.94 143.645 6.51333 143.138 6.22C142.631 5.92667 142.085 5.78 141.498 5.78C140.911 5.78 140.365 5.92667 139.858 6.22C139.351 6.5 138.938 6.92 138.618 7.48C138.311 8.02667 138.158 8.68 138.158 9.44C138.158 10.2 138.311 10.8667 138.618 11.44C138.938 12.0133 139.351 12.4533 139.858 12.76C140.378 13.0533 140.925 13.2 141.498 13.2C142.085 13.2 142.631 13.0533 143.138 12.76C143.645 12.4667 144.051 12.04 144.358 11.48C144.678 10.9067 144.838 10.24 144.838 9.48Z" fill="black"/>
</svg>
